<?xml version="1.0" standalone="no"?>
<!DOCTYPE svg PUBLIC "-//W3C//DTD SVG 20010904//EN"
 "http://www.w3.org/TR/2001/REC-SVG-20010904/DTD/svg10.dtd">
<svg version="1.0" xmlns="http://www.w3.org/2000/svg"
 width="32.000000pt" height="32.000000pt" viewBox="0 0 32.000000 32.000000"
 preserveAspectRatio="xMidYMid meet">

<g transform="translate(0.000000,32.000000) scale(0.100000,-0.100000)"
fill="#000000" stroke="none">
<path d="M150 250 c0 -37 2 -40 28 -40 15 0 34 -6 41 -12 11 -10 14 -10 18 0
3 6 18 12 34 12 27 0 29 2 29 40 l0 40 -75 0 -75 0 0 -40z m130 1 c0 -14 -8
-21 -27 -23 -52 -6 -83 3 -83 23 0 16 8 19 55 19 48 0 55 -3 55 -19z"/>
<path d="M130 180 c-9 -6 -15 -24 -15 -47 0 -21 -4 -40 -10 -43 -5 -3 -9 8
-10 24 0 60 -68 60 -71 0 -1 -16 -5 -37 -9 -47 -4 -9 -3 -17 3 -17 5 0 12 7
16 15 8 22 47 19 53 -5 7 -25 20 -26 28 -1 12 39 78 39 90 0 8 -25 21 -24 28
1 6 24 45 27 53 5 4 -8 11 -15 16 -15 6 0 7 8 3 18 -4 9 -8 30 -9 46 -2 56
-70 61 -72 5 0 -40 -19 -27 -19 14 0 38 -15 57 -45 57 -8 0 -22 -5 -30 -10z
m55 -40 c0 -18 -6 -26 -23 -28 -13 -2 -25 3 -28 12 -10 26 4 48 28 44 17 -2
23 -10 23 -28z m-109 -11 c10 -17 -13 -36 -27 -22 -12 12 -4 33 11 33 5 0 12
-5 16 -11z m200 0 c10 -17 -13 -36 -27 -22 -12 12 -4 33 11 33 5 0 12 -5 16
-11z"/>
</g>
</svg>
