<?xml version="1.0" standalone="no"?>
<!DOCTYPE svg PUBLIC "-//W3C//DTD SVG 20010904//EN"
 "http://www.w3.org/TR/2001/REC-SVG-20010904/DTD/svg10.dtd">
<svg version="1.0" xmlns="http://www.w3.org/2000/svg"
 width="24.000000pt" height="24.000000pt" viewBox="0 0 24.000000 24.000000"
 preserveAspectRatio="xMidYMid meet">

<g transform="translate(0.000000,24.000000) scale(0.100000,-0.100000)"
fill="#000000" stroke="none">
<path d="M50 120 c0 -40 4 -70 10 -70 6 0 10 14 10 30 0 29 1 30 50 30 49 0
50 -1 50 -30 0 -16 5 -30 10 -30 6 0 10 30 10 70 0 40 -4 70 -10 70 -5 0 -10
-13 -10 -30 0 -29 -1 -30 -50 -30 -49 0 -50 1 -50 30 0 17 -4 30 -10 30 -6 0
-10 -30 -10 -70z"/>
<path d="M20 151 c0 -11 -6 -22 -12 -25 -10 -5 -10 -7 0 -12 6 -3 12 -14 12
-25 0 -10 5 -19 10 -19 6 0 10 23 10 50 0 28 -4 50 -10 50 -5 0 -10 -9 -10
-19z"/>
<path d="M200 120 c0 -27 5 -50 10 -50 6 0 10 9 10 19 0 11 6 22 13 25 10 5
10 7 0 12 -7 3 -13 14 -13 25 0 10 -4 19 -10 19 -5 0 -10 -22 -10 -50z"/>
</g>
</svg>
