<?xml version="1.0" standalone="no"?>
<!DOCTYPE svg PUBLIC "-//W3C//DTD SVG 20010904//EN"
 "http://www.w3.org/TR/2001/REC-SVG-20010904/DTD/svg10.dtd">
<svg version="1.0" xmlns="http://www.w3.org/2000/svg"
 width="32.000000pt" height="32.000000pt" viewBox="0 0 32.000000 32.000000"
 preserveAspectRatio="xMidYMid meet">

<g transform="translate(0.000000,32.000000) scale(0.100000,-0.100000)"
fill="#000000" stroke="none">
<path d="M126 268 c-2 -7 -10 -33 -18 -58 -11 -38 -17 -46 -41 -48 -26 -3 -27
-5 -27 -63 0 -56 1 -59 25 -59 15 0 25 6 25 14 0 8 14 15 35 18 55 6 105 -2
105 -18 0 -8 10 -14 25 -14 24 0 25 3 25 60 0 57 -1 60 -24 60 -29 0 -35 8
-50 69 -11 42 -15 46 -44 49 -20 2 -34 -2 -36 -10z m20 -165 c-3 -7 -17 -13
-31 -13 -20 0 -25 5 -25 24 0 13 6 29 14 35 8 7 20 36 28 64 l13 52 3 -74 c2
-41 1 -80 -2 -88z m70 46 c8 -8 14 -26 14 -38 0 -18 -5 -22 -27 -19 -28 3 -28
3 -30 88 l-2 85 15 -50 c9 -27 22 -57 30 -66z m-149 -71 c-2 -13 -4 -3 -4 22
0 25 2 35 4 23 2 -13 2 -33 0 -45z m190 0 c-2 -13 -4 -3 -4 22 0 25 2 35 4 23
2 -13 2 -33 0 -45z"/>
<path d="M230 263 c-10 -12 -11 -18 -2 -21 7 -2 12 -15 12 -28 0 -13 5 -24 10
-24 6 0 10 11 10 24 0 13 6 26 12 28 9 3 8 9 -4 21 -20 20 -19 20 -38 0z"/>
</g>
</svg>
